# AST/ASF file generated using VICON BodyLanguage
# -----------------------------------------------
:version 1.10
:name VICON
:units
  mass 1.0
  length 0.45
  angle deg
:documentation
   .ast/.asf automatically generated from VICON data using
   VICON BodyBuilder and BodyLanguage model FoxedUp or BRILLIANT.MOD
:root
   order TX TY TZ RX RY RZ
   axis XYZ
   position 0 0 0  
   orientation 0 0 0 
:bonedata
  begin
     id 1 
     name lhipjoint
     direction 0.661853 -0.702389 0.261917 
     length 2.64193 
     axis 0 0 0  XYZ
  end
  begin
     id 2 
     name lfemur
     direction 0.34202 -0.939693 0  
     length 7.01722  
     axis 0 0 20  XYZ
    dof rx ry rz
    limits (-160.0 20.0)
           (-70.0 70.0)
           (-60.0 70.0)
  end
  begin
     id 3 
     name ltibia
     direction 0.34202 -0.939693 0   
     length 8.25008   
     axis 0 0 20   XYZ
    dof rx
    limits (-10.0 170.0)
  end
  begin
     id 4 
     name lfoot
     direction 0.0709916 -0.195048 0.978221   
     length 2.31941   
     axis -90 7.62852e-016 20   XYZ
    dof rx rz
    limits (-45.0 90.0)
           (-70.0 20.0)
  end
  begin
     id 5 
     name ltoes
     direction 1.53586e-011 -4.22017e-011 1   
     length 1.16486   
     axis -90 7.62852e-016 20   XYZ
    dof rx
    limits (-90.0 20.0)
  end
  begin
     id 6 
     name rhipjoint
     direction -0.638185 -0.721362 0.268992   
     length 2.57244  
     axis 0 0 0  XYZ 
  end
  begin
     id 7 
     name rfemur
     direction -0.34202 -0.939693 0   
     length 7.07017   
     axis 0 0 -20   XYZ
    dof rx ry rz
    limits (-160.0 20.0)
           (-70.0 70.0)
           (-70.0 60.0)
  end
  begin
     id 8 
     name rtibia
     direction -0.34202 -0.939693 0   
     length 8.20386   
     axis 0 0 -20   XYZ
    dof rx
    limits (-10.0 170.0)
 end
 begin
     id 9 
     name rfoot
     direction -0.0822429 -0.225961 0.970658   
     length 2.32215  
     axis -90 -7.62852e-016 -20   XYZ
    dof rx rz
    limits (-45.0 90.0)
           (-20.0 70.0)
  end
  begin
     id 10 
     name rtoes
     direction -1.53597e-011 -4.21689e-011 1   
     length 1.16333   
     axis -90 -7.62852e-016 -20   XYZ
    dof rx
    limits (-90.0 20.0)
  end
  begin
     id 11 
     name lowerback
     direction -0.0131557 0.998589 -0.0514484   
     length 2.14993   
     axis 0 0 0   XYZ
    dof rx ry rz
    limits (-20.0 45.0)
           (-30.0 30.0)
           (-30.0 30.0)
  end
  begin
     id 12 
     name upperback
     direction -0.000776481 0.999993 0.00352685   
     length 2.15301   
     axis 0 0 0   XYZ
    dof rx ry rz
    limits (-20.0 45.0)
           (-30.0 30.0)
           (-30.0 30.0)
  end
  begin
     id 13 
     name thorax
     direction 0.00438186 0.999609 0.0276143   
     length 2.15424   
     axis 0 0 0   XYZ
    dof rx ry rz
    limits (-20.0 45.0)
           (-30.0 30.0)
           (-30.0 30.0)
  end
  begin
     id 14 
     name lowerneck
     direction -0.0488006 0.998094 0.0377807   
     length 1.90481   
     axis 0 0 0   XYZ
    dof rx ry rz
    limits (-20.0 45.0)
           (-30.0 30.0)
           (-30.0 30.0)
  end
  begin
     id 15 
     name upperneck
     direction 0.0443769 0.990702 -0.12861   
     length 1.91305   
     axis 0 0 0   XYZ
    dof rx ry rz
    limits (-20.0 45.0)
           (-30.0 30.0)
           (-30.0 30.0)
  end
  begin
     id 16
     name head
     direction 0.0165599 0.998647 -0.0492982  
     length 1.92369  
     axis 0 0 0   XYZ
    dof rx ry rz
    limits (-20.0 45.0)
           (-30.0 30.0)
           (-30.0 30.0)
  end
  begin
     id 17 
     name lclavicle
     direction 0.911936 0.410197 -0.0105506  
     length 3.52622  
     axis 0 0 0   XYZ
    dof ry rz
    limits (-20.0 10.0)
           (0.0 20.0)
  end
  begin
     id 18 
     name lhumerus
     direction 1 -4.48974e-011 -2.48591e-028   
     length 5.47651   
     axis 180 -30 -90   XYZ
    dof rx ry rz
    limits (-60.0 90.0)
           (-90.0 90.0)
           (-90.0 90.0)
  end
  begin
     id 19
     name lradius
     direction 1 -4.48938e-011 -4.40099e-027   
     length 3.09058   
     axis 180 -30 -90   XYZ
    dof rx
    limits (-10.0 170.0)
  end
  begin
     id 20
     name lwrist
     direction 1 -4.49042e-011 -2.99852e-027   
     length 1.54529   
     axis 1.95339e-015 90 90   XYZ
    dof ry
    limits (-180.0 0.0)
 end
  begin
     id 21 
     name lhand
     direction 1 -4.48815e-011 -5.98193e-027   
     length 0.771611   
     axis 3.82337e-015 90 90   XYZ
    dof rx rz
    limits (-90.0 90.0)
           (-45.0 45.0)
  end
  begin
     id 22 
     name lfingers
     direction 1 -4.49034e-011 -1.1993e-026   
     length 0.622093   
     axis 7.64668e-015 90 90   XYZ
    dof rx
    limits (0.0 90.0)
  end
  begin
     id 23
     name lthumb
     direction 0.707107 -6.34867e-011 0.707107   
     length 0.893204   
     axis -90 45 -1.62303e-014   XYZ
    dof rx rz
    limits (-45.0 45.0)
           (-45.0 45.0)
  end
  begin
     id 24 
     name rclavicle
     direction -0.93442 0.355634 -0.0195692   
     length 3.62463  
     axis 0 0 0   XYZ 
    dof ry rz
    limits (-10.0 20.0)
           (-20.0 0.0)
  end
  begin
     id 25 
     name rhumerus
     direction -1 -4.48957e-011 -1.19147e-027  
     length 5.14182   
     axis 180 30 90   XYZ
    dof rx ry rz
    limits (-90.0 60.0)
           (-90.0 90.0)
           (-90.0 90.0)
  end
  begin
     id 26 
     name rradius
     direction -1 -4.48952e-011 -3.81062e-027   
     length 3.35565   
     axis 180 30 90   XYZ
    dof rx
    limits (-10.0 170.0)
  end
  begin
     id 27 
     name rwrist
     direction -1 -4.48973e-011 -2.99621e-027   
     length 1.67782   
     axis 1.95339e-015 -90 -90   XYZ
    dof ry
    limits (-180.0 0.0)
  end
  begin
     id 28
     name rhand
     direction -1 -4.48895e-011 -5.98727e-027   
     length 0.801042   
     axis 3.82337e-015 -90 -90   XYZ
    dof rx rz
    limits (-90.0 90.0)
           (-45.0 45.0)
  end
  begin
     id 29
     name rfingers
     direction -1 -4.49065e-011 -1.19972e-026   
     length 0.645821   
     axis 7.64668e-015 -90 -90   XYZ
    dof rx
    limits (0.0 90.0)
  end
  begin
     id 30
     name rthumb
     direction -0.707107 -6.34957e-011 0.707107   
     length 0.927273   
     axis -90 -45 1.62303e-014   XYZ
    dof rx rz
    limits (-45.0 45.0)
           (-45.0 45.0)
  end
:hierarchy
  begin
    root lhipjoint rhipjoint lowerback
    lhipjoint lfemur
    lfemur ltibia
    ltibia lfoot
    lfoot ltoes
    rhipjoint rfemur
    rfemur rtibia
    rtibia rfoot
    rfoot rtoes
    lowerback upperback
    upperback thorax
    thorax lowerneck lclavicle rclavicle
    lowerneck upperneck
    upperneck head
    lclavicle lhumerus
    lhumerus lradius
    lradius lwrist
    lwrist lhand lthumb
    lhand lfingers
    rclavicle rhumerus
    rhumerus rradius
    rradius rwrist
    rwrist rhand rthumb
    rhand rfingers
  end

#!OML:ASF E:\Style4\Style4.ASF
:FULLY-SPECIFIED
:DEGREES
558
root -0.175731 17.5348 -1.48852 -0.943581 1.14958 1.20469
lowerback 10.1383 2.11167 2.17415
upperback 10.056 2.90092 1.38696
thorax 4.8948 1.54206 0.0703842
lowerneck 2.42815 -4.53373 -6.19895
upperneck -17.2486 -6.10267 3.95353
head -5.26804 -2.87359 2.56479
rclavicle 1.74931e-014 -9.54166e-015
rhumerus 43.6704 24.4833 -61.242
rradius 116.171
rwrist -16.6172
rhand -33.9737 30.2113
rfingers 7.12502
rthumb -7.1542 0.352206
lclavicle 1.74931e-014 -9.54166e-015
lhumerus 53.2524 -30.8582 63.8846
lradius 118.217
lwrist 25.4481
lhand -23.0088 25.7517
lfingers 7.12502
lthumb 3.43458 55.7038
rfemur -18.1616 -4.96818 18.3644
rtibia 38.8623
rfoot -18.0285 -16.336
rtoes -12.5915
lfemur -18.2946 -0.196006 -18.6412
ltibia 37.8069
lfoot -17.9281 10.3729
ltoes -18.5762
559
root -0.184691 17.5659 -1.46926 -0.744441 1.19721 1.20109
lowerback 9.65732 2.14772 2.15217
upperback 9.96032 2.93664 1.3774
thorax 5.05514 1.55895 0.0885337
lowerneck 2.49105 -4.53754 -6.28593
upperneck -17.5738 -6.09664 4.09473
head -5.37191 -2.86919 2.633
rclavicle -1.74931e-014 -3.97569e-014
rhumerus 44.7264 23.4095 -60.6749
rradius 115.425
rwrist -18.1951
rhand -34.0006 29.8121
rfingers 7.12502
rthumb -7.18014 -0.0461117
lclavicle -1.74931e-014 -3.97569e-014
lhumerus 54.1714 -30.001 63.281
lradius 117.265
lwrist 26.4067
lhand -23.3451 26.3253
lfingers 7.12502
lthumb 3.10987 56.2824
rfemur -17.9161 -4.9181 18.411
rtibia 38.1731
rfoot -17.8319 -16.379
rtoes -12.2337
lfemur -18.0488 -0.246545 -18.6086
ltibia 37.0856
lfoot -17.5994 10.4638
ltoes -18.9076
560
root -0.192509 17.5954 -1.4534 -0.528754 1.2607 1.20216
lowerback 9.42803 2.22762 2.21401
upperback 9.68484 3.0478 1.29255
thorax 4.89364 1.61881 -0.0386536
lowerneck 2.71352 -4.62374 -6.03113
upperneck -17.8149 -6.2185 4.02415
head -5.48896 -2.93656 2.58817
rclavicle 2.50469e-014 5.56597e-015
rhumerus 45.3675 22.3515 -60.3304
rradius 114.673
rwrist -19.8729
rhand -34.1088 29.4381
rfingers 7.12502
rthumb -7.28461 -0.416539
lclavicle 2.50469e-014 5.56597e-015
lhumerus 54.9884 -29.3349 62.7018
lradius 116.351
lwrist 27.6842
lhand -23.4025 26.5754
lfingers 7.12502
lthumb 3.05439 56.5333
rfemur -17.7052 -4.83429 18.4488
rtibia 37.4804
rfoot -17.6244 -16.4706
rtoes -11.9557
lfemur -17.8405 -0.323155 -18.5852
ltibia 36.3565
lfoot -17.3466 10.5472
ltoes -19.1373
561
root -0.201254 17.6249 -1.43661 -0.342173 1.3459 1.31431
lowerback 9.29895 2.38697 2.21487
upperback 9.37239 3.26669 1.13219
thorax 4.64194 1.7308 -0.220985
lowerneck 3.01196 -4.76754 -5.61783
upperneck -18.0382 -6.40534 3.97022
head -5.61509 -3.04759 2.52806
rclavicle -1.03368e-014 4.77083e-015
rhumerus 45.7498 21.1013 -60.0803
rradius 113.912
rwrist -21.5562
rhand -34.4041 29.1108
rfingers 7.12502
rthumb -7.56961 -0.733787
lclavicle -1.03368e-014 4.77083e-015
lhumerus 55.8733 -28.9891 62.0968
lradius 115.466
lwrist 29.0061
lhand -23.3113 27.0102
lfingers 7.12502
lthumb 3.14247 56.9668
rfemur -17.4511 -4.75567 18.3649
rtibia 36.7796
rfoot -17.1797 -16.7476
rtoes -13.4366
lfemur -17.6007 -0.445489 -18.6807
ltibia 35.6384
lfoot -17.1633 10.5295
ltoes -18.5866
562
root -0.210776 17.6568 -1.42101 -0.145607 1.40668 1.27961
lowerback 9.26681 2.5722 2.38683
upperback 8.98183 3.53155 1.00149
thorax 4.26681 1.87198 -0.477275
lowerneck 3.2629 -4.94434 -5.29628
upperneck -18.0948 -6.62363 4.01419
head -5.67353 -3.17759 2.50928
rclavicle -5.96354e-015 -2.78299e-014
rhumerus 45.9634 19.8509 -59.8622
rradius 113.113
rwrist -23.3216
rhand -34.5954 28.8238
rfingers 7.12502
rthumb -7.75426 -1.01402
lclavicle -5.96354e-015 -2.78299e-014
lhumerus 56.7047 -28.7423 61.5685
lradius 114.585
lwrist 30.5114
lhand -23.369 27.6425
lfingers 7.12502
lthumb 3.08676 57.5999
rfemur -17.2011 -4.66321 18.4522
rtibia 36.0621
rfoot -16.9033 -16.8612
rtoes -13.6242
lfemur -17.392 -0.545542 -18.6095
ltibia 34.951
lfoot -16.9291 10.5917
ltoes -18.4133
563
root -0.220356 17.6887 -1.40981 0.0792671 1.4798 1.16269
lowerback 9.30071 2.6533 2.53493
upperback 8.53689 3.65837 0.911451
thorax 3.79298 1.93824 -0.677624
lowerneck 3.51329 -5.01233 -4.99849
upperneck -18.099 -6.70119 4.00922
head -5.72409 -3.23451 2.47158
rclavicle 6.75868e-015 9.54166e-015
rhumerus 46.337 18.8934 -59.688
rradius 112.22
rwrist -25.041
rhand -34.7957 28.4685
rfingers 7.12502
rthumb -7.94759 -1.36209
lclavicle 6.75868e-015 9.54166e-015
lhumerus 57.3627 -28.1271 61.1072
lradius 113.652
lwrist 32.2111
lhand -23.5917 28.2779
lfingers 7.12502
lthumb 2.87164 58.2383
rfemur -16.9766 -4.55649 18.6379
rtibia 35.3182
rfoot -16.9837 -16.7276
rtoes -10.7398
lfemur -17.2567 -0.566915 -18.4365
ltibia 34.2979
lfoot -16.683 10.546
ltoes -18.1629
564
root -0.231969 17.7192 -1.39969 0.291586 1.51611 0.933925
lowerback 9.22616 2.61966 2.6033
upperback 8.22454 3.61984 0.968653
thorax 3.50093 1.91465 -0.662234
lowerneck 3.52916 -4.96557 -4.99964
upperneck -18.0436 -6.63474 4.0222
head -5.71184 -3.2033 2.47153
rclavicle -2.18663e-015 3.97569e-015
rhumerus 47.2078 18.221 -59.3406
rradius 111.306
rwrist -26.838
rhand -35.0812 27.9147
rfingers 7.12502
rthumb -8.22313 -1.9053
lclavicle -2.18663e-015 3.97569e-015
lhumerus 57.9528 -27.027 60.6927
lradius 112.617
lwrist 33.749
lhand -23.7428 28.9166
lfingers 7.12502
lthumb 2.72578 58.879
rfemur -16.7451 -4.32401 18.9549
rtibia 34.5341
rfoot -16.9925 -16.7022
rtoes -8.75191
lfemur -17.1379 -0.52965 -18.1304
ltibia 33.6802
lfoot -16.3447 10.4764
ltoes -18.2412
565
root -0.244231 17.7474 -1.3877 0.471869 1.56334 0.740918
lowerback 9.08834 2.55868 2.61232
upperback 8.03971 3.53643 1.09097
thorax 3.36998 1.86656 -0.536092
lowerneck 3.27617 -4.91137 -5.27019
upperneck -17.8948 -6.56351 4.07119
head -5.61432 -3.15543 2.51461
rclavicle 8.15017e-015 3.97569e-015
rhumerus 48.2697 17.5436 -58.8611
rradius 110.385
rwrist -28.6446
rhand -35.2051 27.3259
rfingers 7.12502
rthumb -8.34271 -2.48939
lclavicle 8.15017e-015 3.97569e-015
lhumerus 58.6487 -25.7975 60.2962
lradius 111.553
lwrist 35.0971
lhand -23.7249 29.6298
lfingers 7.12502
lthumb 2.74304 59.5919
rfemur -16.4704 -4.12319 19.2388
rtibia 33.7403
rfoot -16.667 -16.8978
rtoes -8.86546
lfemur -16.9646 -0.549323 -17.8644
ltibia 33.0607
lfoot -16.0288 10.4777
ltoes -18.514
566
root -0.254955 17.7765 -1.37418 0.670178 1.67566 0.633987
lowerback 8.95821 2.55127 2.68853
upperback 7.82575 3.53122 1.10577
thorax 3.21863 1.86354 -0.563909
lowerneck 3.10393 -4.94966 -5.39488
upperneck -17.7751 -6.60589 4.13795
head -5.53854 -3.17362 2.54835
rclavicle 7.55382e-015 -9.54166e-015
rhumerus 49.0864 16.6088 -58.567
rradius 109.396
rwrist -30.2415
rhand -35.1463 26.6539
rfingers 7.12502
rthumb -8.28597 -3.16359
lclavicle 7.55382e-015 -9.54166e-015
lhumerus 59.453 -24.8666 59.8675
lradius 110.447
lwrist 36.5486
lhand -23.5946 30.3527
lfingers 7.12502
lthumb 2.86884 60.3131
rfemur -16.1928 -3.984 19.4165
rtibia 32.9455
rfoot -16.3299 -17.1281
rtoes -8.96956
lfemur -16.7882 -0.708177 -17.7045
ltibia 32.4076
lfoot -15.8182 10.5311
ltoes -18.4551
567
root -0.263848 17.8071 -1.35906 0.930879 1.78696 0.630505
lowerback 8.72382 2.59314 2.69179
upperback 7.58475 3.58541 1.05473
thorax 3.09769 1.88874 -0.617913
lowerneck 3.15569 -5.03092 -5.38137
upperneck -17.7823 -6.70418 4.22361
head -5.54159 -3.22842 2.57897
rclavicle 3.06128e-014 -1.27222e-014
rhumerus 49.78 15.5993 -58.311
rradius 108.369
rwrist -31.661
rhand -35.1579 26.0228
rfingers 7.12502
rthumb -8.29718 -3.79426
lclavicle 3.06128e-014 -1.27222e-014
lhumerus 60.2491 -24.2449 59.4547
lradius 109.232
lwrist 38.004
lhand -23.6023 30.8886
lfingers 7.12502
lthumb 2.86143 60.8492
rfemur -15.9829 -3.8992 19.4668
rtibia 32.1634
rfoot -15.9478 -17.3258
rtoes -9.19256
lfemur -16.637 -0.915121 -17.6729
ltibia 31.7024
lfoot -15.5957 10.6761
ltoes -18.3734
568
root -0.27366 17.8359 -1.3453 1.14978 1.85304 0.650164
lowerback 8.56883 2.64468 2.67126
upperback 7.33033 3.65401 0.980645
thorax 2.9201 1.91997 -0.687734
lowerneck 3.3237 -5.11003 -5.23794
upperneck -17.8676 -6.80482 4.24236
head -5.59601 -3.28731 2.57423
rclavicle -1.19271e-014 -3.18055e-014
rhumerus 50.4443 14.6623 -58.0785
rradius 107.329
rwrist -33.0593
rhand -35.2206 25.3618
rfingers 7.12502
rthumb -8.35765 -4.45285
lclavicle -1.19271e-014 -3.18055e-014
lhumerus 60.987 -23.6891 59.0187
lradius 108.026
lwrist 39.5747
lhand -23.5347 31.2284
lfingers 7.12502
lthumb 2.92674 61.1881
rfemur -15.7466 -3.74594 19.4881
rtibia 31.401
rfoot -15.7116 -17.4845
rtoes -8.9544
lfemur -16.4273 -1.1264 -17.6598
ltibia 30.9592
lfoot -15.2701 10.8655
ltoes -18.6134
569
root -0.283972 17.863 -1.33484 1.35134 1.91383 0.617375
lowerback 8.43459 2.62965 2.63447
upperback 7.09651 3.63261 0.965038
thorax 2.74533 1.90412 -0.683771
lowerneck 3.52031 -5.09545 -5.20997
upperneck -17.9877 -6.79203 4.24384
head -5.66872 -3.28177 2.57971
rclavicle -2.66371e-014 4.77083e-015
rhumerus 51.2649 13.8993 -57.7793
rradius 106.307
rwrist -34.5098
rhand -35.3905 24.5014
rfingers 7.12502
rthumb -8.5216 -5.30664
lclavicle -2.66371e-014 4.77083e-015
lhumerus 61.6272 -22.741 58.6061
lradius 106.87
lwrist 41.2892
lhand -23.3887 31.6879
lfingers 7.12502
lthumb 3.06774 61.6455
rfemur -15.527 -3.57639 19.5678
rtibia 30.6726
rfoot -15.4958 -17.6195
rtoes -8.58746
lfemur -16.2079 -1.30922 -17.5857
ltibia 30.2077
lfoot -14.9112 11.0496
ltoes -18.9222
